<?xml version="1.0" standalone="no"?>
<!DOCTYPE svg PUBLIC "-//W3C//DTD SVG 20010904//EN"
 "http://www.w3.org/TR/2001/REC-SVG-20010904/DTD/svg10.dtd">
<svg version="1.0" xmlns="http://www.w3.org/2000/svg"
 width="500.000000pt" height="500.000000pt" viewBox="0 0 500.000000 500.000000"
 preserveAspectRatio="xMidYMid meet">
<metadata>
Created by potrace 1.16, written by Peter Selinger 2001-2019
</metadata>
<g transform="translate(0.000000,500.000000) scale(0.100000,-0.100000)"
fill="#000000" stroke="none">
<path d="M2404 4081 c-65 -30 -1137 -651 -1161 -673 -52 -48 -54 -126 -4 -175
25 -24 984 -586 1140 -667 68 -36 164 -41 221 -11 19 10 220 125 447 257 226
131 414 238 417 238 4 0 5 -251 4 -557 l-3 -557 -365 -213 c-549 -321 -522
-307 -605 -308 l-70 0 -420 243 c-231 134 -433 257 -450 273 l-30 29 -5 373
c-3 204 -7 373 -8 374 -31 25 -355 203 -370 203 -12 0 -31 -9 -42 -20 -20 -20
-20 -33 -20 -594 l0 -573 23 -33 c17 -27 159 -113 667 -407 669 -387 684 -394
767 -378 51 9 53 10 658 360 297 171 571 329 609 351 123 70 111 -25 111 884
0 784 0 789 -21 817 -25 34 -379 243 -413 243 -13 0 -197 -100 -410 -223 -212
-123 -413 -239 -446 -257 -51 -29 -69 -34 -125 -34 -74 0 -68 -2 -290 127
-187 109 -192 112 -188 151 3 28 18 39 202 144 182 105 204 115 260 119 57 4
67 2 154 -42 108 -54 73 -62 301 70 161 93 183 115 164 158 -8 16 -90 70 -249
162 -130 75 -252 144 -270 151 -47 20 -131 17 -180 -5z"/>
<path d="M2631 2458 c-5 -13 -53 -113 -106 -223 -140 -288 -225 -466 -225
-471 0 -5 77 -44 88 -44 4 0 20 26 34 58 15 31 81 170 148 307 159 327 173
356 169 358 -16 10 -82 37 -90 37 -5 0 -13 -10 -18 -22z"/>
<path d="M2144 2368 c-10 -6 -35 -20 -54 -33 -19 -12 -83 -53 -142 -90 l-108
-67 0 -47 c0 -44 2 -48 43 -72 23 -14 96 -59 161 -99 131 -81 124 -80 161 -9
l14 27 -129 73 c-71 41 -130 77 -130 81 0 4 59 42 130 84 72 42 130 78 130 80
0 2 -13 22 -28 43 -24 33 -31 37 -48 29z"/>
<path d="M2848 2335 l-27 -45 117 -68 c64 -38 125 -73 134 -78 14 -8 -8 -25
-117 -90 l-134 -80 26 -43 c16 -27 30 -40 39 -37 7 3 81 47 164 98 l150 93 -2
49 -3 48 -158 99 c-87 54 -159 99 -160 99 -1 0 -14 -20 -29 -45z"/>
</g>
</svg>
